<svg xmlns="http://www.w3.org/2000/svg" viewBox="0 0 128 128" style="height:512px;width:512px" width="128" height="128">
  <path d="m38.416 4.504 13.144 33.68a2.88 2.88 0 0 0 1.808 1.744c.8.288 1.84.296 2.768.04s1.68-.784 2-1.232.408-.64.128-1.312l-.008-.032L45.392 4.504zM61.96 34.536l.472 1.2-.024-.056a5.92 5.92 0 0 1-.632 5.704 8 8 0 0 1-4.432 2.92c-1.736.488-3.664.52-5.496-.144s-3.536-2.112-4.432-4.232l-.016-.032-.44-1.128c-7.824 4.952-10.616 10.504-8.84 17.224.312 1.168.856 3.088 1.488 5.536A140.8 140.8 0 0 0 89.56 48.624c-2.576-3.464-5.624-6.456-9.56-8.632-5.128-2.832-11.912-5.04-18.048-5.464zm30.136 17.88a145.6 145.6 0 0 1-51.392 13.552 150 150 0 0 1 1.488 7.12c22.4-2.52 40.76-6.552 54.44-12.192a104 104 0 0 0-4.536-8.48m6.512 12.536c-14.272 5.944-33 10.024-55.68 12.584C45.176 92.856 44.904 111.688 32 120q6.096 0 11.728-.112c4.456-6.392 7.816-16.552 8.016-21.536 2.064 4.2.824 14.832-1.344 21.36l2.032-.072c2.952-3.096 2.928-7.16 3.68-11.824.832 3.728 1.752 8.24 2.376 11.536q4.224-.232 8.152-.544c4.096-5.088 5.416-12.4 4.656-21.368 1.056 7.272 2.28 15.536 2.968 20.64a192 192 0 0 0 6.952-.904c1.264-4.696-1.024-12.112-.52-17.384 2.784 10.776 5.56 13.864 8.344 16.008a112 112 0 0 0 3.936-.88c-1.176-3.488.392-5.624.296-10 1.408 4.744 3.656 6.736 6.104 8.208q2.44-.8 4.624-1.672c-2.632-1.64-2.528-6.592-3.096-10.728 1.488 5.424 3.6 8.104 6.024 9.456 7.28-3.448 12.176-7.88 15.096-13.416-2.272-.952-4.672-3.248-7.016-5.024 3.304 1.872 5.92 2.656 8.096 2.736a32 32 0 0 0 .888-2.464c-14.08-4.88-20.016-16.008-25.392-27.048z" fill="#fff"/>
</svg>
